<svg width="25" height="20" viewBox="0 0 25 20" fill="none" xmlns="http://www.w3.org/2000/svg">
<path d="M20.004 7.46009L19.6837 8.01868C19.5665 8.22571 19.3165 8.31165 19.0939 8.22962C18.6329 8.05774 18.2111 7.81165 17.84 7.50306C17.6603 7.35462 17.6134 7.0929 17.7306 6.88977L18.0509 6.33118C17.7814 6.01868 17.5704 5.6554 17.4298 5.26087H16.7853C16.5509 5.26087 16.3478 5.0929 16.3087 4.85853C16.2306 4.38978 16.2267 3.89759 16.3087 3.40931C16.3478 3.17493 16.5509 3.00306 16.7853 3.00306H17.4298C17.5704 2.60853 17.7814 2.24524 18.0509 1.93274L17.7306 1.37415C17.6134 1.17103 17.6564 0.909306 17.84 0.760869C18.2111 0.452275 18.6368 0.206181 19.0939 0.0343063C19.3165 -0.0477249 19.5665 0.0382126 19.6837 0.245244L20.004 0.803838C20.4142 0.729619 20.8322 0.729619 21.2423 0.803838L21.5626 0.245244C21.6798 0.0382126 21.9298 -0.0477249 22.1525 0.0343063C22.6134 0.206181 23.0353 0.452275 23.4064 0.760869C23.5861 0.909306 23.6329 1.17103 23.5157 1.37415L23.1954 1.93274C23.465 2.24524 23.6759 2.60853 23.8165 3.00306H24.4611C24.6954 3.00306 24.8986 3.17103 24.9376 3.4054C25.0157 3.87415 25.0197 4.36634 24.9376 4.85462C24.8986 5.08899 24.6954 5.26087 24.4611 5.26087H23.8165C23.6759 5.6554 23.465 6.01868 23.1954 6.33118L23.5157 6.88977C23.6329 7.0929 23.59 7.35462 23.4064 7.50306C23.0353 7.81165 22.6095 8.05774 22.1525 8.22962C21.9298 8.31165 21.6798 8.22571 21.5626 8.01868L21.2423 7.46009C20.8361 7.53431 20.4142 7.53431 20.004 7.46009ZM19.5939 5.16321C21.0978 6.31946 22.8126 4.60462 21.6564 3.10071C20.1525 1.94056 18.4376 3.65931 19.5939 5.16321ZM15.09 11.1749L16.4064 11.8312C16.8009 12.0577 16.9728 12.5382 16.8165 12.9679C16.4689 13.9132 15.7853 14.7804 15.1525 15.5382C14.8634 15.8859 14.3634 15.9718 13.9689 15.7452L12.8322 15.089C12.2072 15.6241 11.4806 16.0499 10.6876 16.3273V17.6398C10.6876 18.0929 10.3634 18.4835 9.91809 18.5616C8.95715 18.7257 7.94934 18.7335 6.95325 18.5616C6.50403 18.4835 6.172 18.0968 6.172 17.6398V16.3273C5.37903 16.046 4.65247 15.6241 4.02747 15.089L2.89075 15.7413C2.50012 15.9679 1.99622 15.882 1.70715 15.5343C1.07434 14.7765 0.406373 13.9093 0.0587164 12.9679C-0.0975336 12.5421 0.0743414 12.0616 0.468873 11.8312L1.76965 11.1749C1.61731 10.3585 1.61731 9.51868 1.76965 8.69837L0.468873 8.03821C0.0743414 7.81165 -0.10144 7.33118 0.0587164 6.9054C0.406373 5.96009 1.07434 5.0929 1.70715 4.33509C1.99622 3.98743 2.49622 3.90149 2.89075 4.12806L4.02747 4.78431C4.65247 4.24915 5.37903 3.82337 6.172 3.54603V2.22962C6.172 1.7804 6.49231 1.38978 6.93762 1.31165C7.89856 1.14759 8.91028 1.13978 9.90637 1.30774C10.3556 1.38587 10.6876 1.77259 10.6876 2.22962V3.54212C11.4806 3.82337 12.2072 4.24524 12.8322 4.7804L13.9689 4.12415C14.3595 3.89759 14.8634 3.98353 15.1525 4.33118C15.7853 5.08899 16.4493 5.95618 16.797 6.90149C16.9532 7.32727 16.8009 7.80774 16.4064 8.03821L15.09 8.69446C15.2423 9.51478 15.2423 10.3546 15.09 11.1749ZM10.4962 11.9992C12.8087 8.99134 9.37512 5.55774 6.36731 7.87024C4.05481 10.8781 7.4884 14.3117 10.4962 11.9992ZM20.004 19.1359L19.6837 19.6945C19.5665 19.9015 19.3165 19.9874 19.0939 19.9054C18.6329 19.7335 18.2111 19.4874 17.84 19.1788C17.6603 19.0304 17.6134 18.7687 17.7306 18.5656L18.0509 18.007C17.7814 17.6945 17.5704 17.3312 17.4298 16.9366H16.7853C16.5509 16.9366 16.3478 16.7687 16.3087 16.5343C16.2306 16.0656 16.2267 15.5734 16.3087 15.0851C16.3478 14.8507 16.5509 14.6788 16.7853 14.6788H17.4298C17.5704 14.2843 17.7814 13.921 18.0509 13.6085L17.7306 13.0499C17.6134 12.8468 17.6564 12.5851 17.84 12.4366C18.2111 12.1281 18.6368 11.882 19.0939 11.7101C19.3165 11.6281 19.5665 11.714 19.6837 11.921L20.004 12.4796C20.4142 12.4054 20.8322 12.4054 21.2423 12.4796L21.5626 11.921C21.6798 11.714 21.9298 11.6281 22.1525 11.7101C22.6134 11.882 23.0353 12.1281 23.4064 12.4366C23.5861 12.5851 23.6329 12.8468 23.5157 13.0499L23.1954 13.6085C23.465 13.921 23.6759 14.2843 23.8165 14.6788H24.4611C24.6954 14.6788 24.8986 14.8468 24.9376 15.0812C25.0157 15.5499 25.0197 16.0421 24.9376 16.5304C24.8986 16.7648 24.6954 16.9366 24.4611 16.9366H23.8165C23.6759 17.3312 23.465 17.6945 23.1954 18.007L23.5157 18.5656C23.6329 18.7687 23.59 19.0304 23.4064 19.1788C23.0353 19.4874 22.6095 19.7335 22.1525 19.9054C21.9298 19.9874 21.6798 19.9015 21.5626 19.6945L21.2423 19.1359C20.8361 19.2101 20.4142 19.2101 20.004 19.1359ZM19.5939 16.8351C21.0978 17.9913 22.8126 16.2765 21.6564 14.7726C20.1525 13.6163 18.4376 15.3312 19.5939 16.8351Z" fill="white"/>
</svg>
