<svg width="20" height="19" viewBox="0 0 20 19" fill="none" xmlns="http://www.w3.org/2000/svg">
<path d="M0.714286 3.89287H19.2857C19.6802 3.89287 20 3.5731 20 3.17859V1.39287C20 0.998366 19.6802 0.678589 19.2857 0.678589H0.714286C0.319777 0.678589 0 0.998366 0 1.39287V3.17859C0 3.5731 0.319777 3.89287 0.714286 3.89287ZM0.714286 11.0357H19.2857C19.6802 11.0357 20 10.716 20 10.3214V8.53573C20 8.14122 19.6802 7.82145 19.2857 7.82145H0.714286C0.319777 7.82145 0 8.14122 0 8.53573V10.3214C0 10.716 0.319777 11.0357 0.714286 11.0357ZM0.714286 18.1786H19.2857C19.6802 18.1786 20 17.8588 20 17.4643V15.6786C20 15.2841 19.6802 14.9643 19.2857 14.9643H0.714286C0.319777 14.9643 0 15.2841 0 15.6786V17.4643C0 17.8588 0.319777 18.1786 0.714286 18.1786Z" fill="#FFFAFA"/>
</svg>
