<svg width="10" height="11" viewBox="0 0 10 11" fill="none" xmlns="http://www.w3.org/2000/svg">
<circle cx="5" cy="6" r="5" fill="#FF0000"/>
<path d="M6.8208 9H2.43506V8.12988L4.50488 5.92383C4.78906 5.61328 4.99854 5.34229 5.1333 5.11084C5.271 4.87939 5.33984 4.65967 5.33984 4.45166C5.33984 4.16748 5.26807 3.94482 5.12451 3.78369C4.98096 3.61963 4.77588 3.5376 4.50928 3.5376C4.22217 3.5376 3.99512 3.63721 3.82812 3.83643C3.66406 4.03271 3.58203 4.29199 3.58203 4.61426H2.30762C2.30762 4.22461 2.3999 3.86865 2.58447 3.54639C2.77197 3.22412 3.03564 2.97217 3.37549 2.79053C3.71533 2.60596 4.10059 2.51367 4.53125 2.51367C5.19043 2.51367 5.70166 2.67188 6.06494 2.98828C6.43115 3.30469 6.61426 3.75146 6.61426 4.32861C6.61426 4.64502 6.53223 4.96729 6.36816 5.29541C6.2041 5.62354 5.92285 6.00586 5.52441 6.44238L4.06982 7.97607H6.8208V9Z" fill="white"/>
</svg>
