<?xml version="1.0" encoding="utf-8"?>
<!-- Generator: Adobe Illustrator 25.3.0, SVG Export Plug-In . SVG Version: 6.00 Build 0)  -->
<svg version="1.1" id="Layer_1" xmlns="http://www.w3.org/2000/svg" xmlns:xlink="http://www.w3.org/1999/xlink" x="0px" y="0px"
	 viewBox="0 0 40 40" style="enable-background:new 0 0 40 40;" xml:space="preserve">
<path d="M39.4,20c0,10.7-8.7,19.4-19.4,19.4C9.3,39.4,0.6,30.7,0.6,20C0.6,9.3,9.3,0.6,20,0.6C30.7,0.6,39.4,9.3,39.4,20z
	 M11.1,21.3l10.6,10.6c0.7,0.7,1.9,0.7,2.6,0l1.3-1.3c0.7-0.7,0.7-1.9,0-2.6L17.7,20l7.9-7.9c0.7-0.7,0.7-1.9,0-2.6l-1.3-1.3
	c-0.7-0.7-1.9-0.7-2.6,0L11.1,18.7C10.4,19.4,10.4,20.6,11.1,21.3z"/>
</svg>
